{"title":"Devil(2010)MPEG-4[DaScubaDude]","uid":15096195,"size":872599960,"categoryP":"video","categoryS":"movies","magnet":"?xt=urn:btih:237bd8d80bc030a780bc470eb248547037b67895&amp;dn=Devil%282010%29MPEG-4%5BDaScubaDude%5D&amp;tr=udp%3A%2F%2Ftracker.leechers-paradise.org%3A6969&amp;tr=udp%3A%2F%2Fzer0day.ch%3A1337&amp;tr=udp%3A%2F%2Fopen.demonii.com%3A1337&amp;tr=udp%3A%2F%2Ftracker.coppersurfer.tk%3A6969&amp;tr=udp%3A%2F%2Fexodus.desync.com%3A6969","seeders":0,"leechers":0,"uploader":"dascuba","files":1,"time":1466922988,"description":"Devil (2010)\r\nPG-13 | 1h 20min | Horror, Mystery | 17 September 2010 (USA)\r\nA group of people are trapped in an elevator and the Devil is mysteriously amongst them.\r\nDirector: John Erick Dowdle\r\nWriters: Brian Nelson (screenplay), M. Night Shyamalan (story)\r\nStars: Chris Messina, Caroline Dhavernas, Bokeem Woodbine |\r\n\r\nGeneral\r\nComplete name                            : DevilDEVIL_Title2.mp4\r\nFormat                                   : MPEG-4\r\nFormat profile                           : Base Media\r\nCodec ID                                 : isom (isom/iso2/avc1/mp41)\r\nFile size                                : 832 MiB\r\nDuration                                 : 1h 20mn\r\nOverall bit rate                         : 1 447 Kbps\r\nMovie name                               : DEVIL\r\nGenre                                    : Thriller\r\nWriting application                      : Lavf54.6.100\r\n\r\nVideo\r\nID                                       : 1\r\nFormat                                   : AVC\r\nFormat/Info                              : Advanced Video Codec\r\nFormat profile                           :   \r\nFormat settings, CABAC                   : No\r\nFormat settings, ReFrames                : 6 frames\r\nCodec ID                                 : avc1\r\nCodec ID/Info                            : Advanced Video Coding\r\nDuration                                 : 1h 20mn\r\nBit rate                                 : 1 199 Kbps\r\nWidth                                    : 720 pixels\r\nHeight                                   : 404 pixels\r\nDisplay aspect ratio                     : 16:9\r\nFrame rate mode                          : Constant\r\nFrame rate                               : 29.970 (30000/1001) fps\r\nColor space                              : YUV\r\nChroma subsampling                       : 4:2:0\r\nBit depth                                : 8 bits\r\nScan type                                : Progressive\r\nBits/(Pixel*Frame)                       : 0.138\r\nStream size                              : 690 MiB (83%)\r\n\r\nAudio\r\nID                                       : 2\r\nFormat                                   : AAC\r\nFormat/Info                              : Advanced Audio Codec\r\nFormat profile                           : LC\r\nCodec ID                                 : 40\r\nDuration                                 : 1h 20mn\r\nBit rate mode                            : Constant\r\nBit rate                                 : 241 Kbps\r\nChannel(s)                               : 2 channels\r\nChannel(s)_Original                      : 6 channels\r\nChannel positions                        : Front: L C R, Side: L R, LFE\r\nSampling rate                            : 44.1 KHz\r\nFrame rate                               : 43.066 fps (1024 spf)\r\nCompression mode                         : Lossy\r\nStream size                              : 139 MiB (17%)\r\nDefault                                  : Yes\r\nAlternate group                          : 1","torrent":{"xt":"urn:btih:237bd8d80bc030a780bc470eb248547037b67895","amp;dn":"Devil%282010%29MPEG-4%5BDaScubaDude%5D","amp;tr":["udp%3A%2F%2Ftracker.leechers-paradise.org%3A6969","udp%3A%2F%2Fzer0day.ch%3A1337","udp%3A%2F%2Fopen.demonii.com%3A1337","udp%3A%2F%2Ftracker.coppersurfer.tk%3A6969","udp%3A%2F%2Fexodus.desync.com%3A6969"],"infoHash":"237bd8d80bc030a780bc470eb248547037b67895","infoHashBuffer":{"type":"Buffer","data":[35,123,216,216,11,192,48,167,128,188,71,14,178,72,84,112,55,182,120,149]},"announce":[],"urlList":[]}}